<svg width="2171" height="724" viewBox="0 0 2171 724" fill="none" xmlns="http://www.w3.org/2000/svg">
<path d="M711.5 308H745.75L706 433H675.25L652.25 357.25L629.25 433H598.5L558.75 308H593L614.25 384.75L637 308H667.5L690.25 385L711.5 308Z" fill="#BBC6D0"/>
<path d="M787.883 293C782.549 293 777.883 291.083 773.883 287.25C770.049 283.25 768.133 278.583 768.133 273.25C768.133 267.917 770.049 263.25 773.883 259.25C777.883 255.25 782.549 253.25 787.883 253.25C793.383 253.25 798.049 255.25 801.883 259.25C805.883 263.25 807.883 267.917 807.883 273.25C807.883 278.583 805.883 283.25 801.883 287.25C798.049 291.083 793.383 293 787.883 293ZM771.883 433V308H804.133V433H771.883Z" fill="#BBC6D0"/>
<path d="M874.65 329.5C877.65 321.5 882.567 315.5 889.4 311.5C896.4 307.5 904.15 305.5 912.65 305.5V341.5C902.817 340.333 893.984 342.333 886.15 347.5C878.484 352.667 874.65 361.25 874.65 373.25V433H842.4V308H874.65V329.5Z" fill="#BBC6D0"/>
<path d="M962.873 383.75C967.206 399.417 978.956 407.25 998.123 407.25C1010.46 407.25 1019.79 403.083 1026.12 394.75L1052.12 409.75C1039.79 427.583 1021.62 436.5 997.623 436.5C976.956 436.5 960.373 430.25 947.873 417.75C935.373 405.25 929.123 389.5 929.123 370.5C929.123 351.667 935.29 336 947.623 323.5C959.956 310.833 975.79 304.5 995.123 304.5C1013.46 304.5 1028.54 310.833 1040.37 323.5C1052.37 336.167 1058.37 351.833 1058.37 370.5C1058.37 374.667 1057.96 379.083 1057.12 383.75H962.873ZM962.373 358.75H1026.12C1024.29 350.25 1020.46 343.917 1014.62 339.75C1008.96 335.583 1002.46 333.5 995.123 333.5C986.456 333.5 979.29 335.75 973.623 340.25C967.956 344.583 964.206 350.75 962.373 358.75Z" fill="#BBC6D0"/>
<path d="M1183.41 258H1215.66V433H1183.41V418.25C1173.91 430.417 1160.41 436.5 1142.91 436.5C1126.08 436.5 1111.66 430.167 1099.66 417.5C1087.83 404.667 1081.91 389 1081.91 370.5C1081.91 352 1087.83 336.417 1099.66 323.75C1111.66 310.917 1126.08 304.5 1142.91 304.5C1160.41 304.5 1173.91 310.583 1183.41 322.75V258ZM1123.91 396C1130.58 402.5 1138.91 405.75 1148.91 405.75C1158.91 405.75 1167.16 402.5 1173.66 396C1180.16 389.333 1183.41 380.833 1183.41 370.5C1183.41 360.167 1180.16 351.75 1173.66 345.25C1167.16 338.583 1158.91 335.25 1148.91 335.25C1138.91 335.25 1130.58 338.583 1123.91 345.25C1117.41 351.75 1114.16 360.167 1114.16 370.5C1114.16 380.833 1117.41 389.333 1123.91 396Z" fill="#BBC6D0"/>
<path d="M1348.9 308H1381.15V433H1348.9V418.25C1339.24 430.417 1325.65 436.5 1308.15 436.5C1291.49 436.5 1277.15 430.167 1265.15 417.5C1253.32 404.667 1247.4 389 1247.4 370.5C1247.4 352 1253.32 336.417 1265.15 323.75C1277.15 310.917 1291.49 304.5 1308.15 304.5C1325.65 304.5 1339.24 310.583 1348.9 322.75V308ZM1289.4 396C1295.9 402.5 1304.15 405.75 1314.15 405.75C1324.15 405.75 1332.4 402.5 1338.9 396C1345.57 389.333 1348.9 380.833 1348.9 370.5C1348.9 360.167 1345.57 351.75 1338.9 345.25C1332.4 338.583 1324.15 335.25 1314.15 335.25C1304.15 335.25 1295.9 338.583 1289.4 345.25C1282.9 351.75 1279.65 360.167 1279.65 370.5C1279.65 380.833 1282.9 389.333 1289.4 396Z" fill="#BBC6D0"/>
<path d="M1447.92 343.5C1447.92 346.833 1450.09 349.583 1454.42 351.75C1458.92 353.75 1464.34 355.583 1470.67 357.25C1477.01 358.75 1483.34 360.75 1489.67 363.25C1496.01 365.583 1501.34 369.583 1505.67 375.25C1510.17 380.917 1512.42 388 1512.42 396.5C1512.42 409.333 1507.59 419.25 1497.92 426.25C1488.42 433.083 1476.51 436.5 1462.17 436.5C1436.51 436.5 1419.01 426.583 1409.67 406.75L1437.67 391C1441.34 401.833 1449.51 407.25 1462.17 407.25C1473.67 407.25 1479.42 403.667 1479.42 396.5C1479.42 393.167 1477.17 390.5 1472.67 388.5C1468.34 386.333 1463.01 384.417 1456.67 382.75C1450.34 381.083 1444.01 379 1437.67 376.5C1431.34 374 1425.92 370.083 1421.42 364.75C1417.09 359.25 1414.92 352.417 1414.92 344.25C1414.92 331.917 1419.42 322.25 1428.42 315.25C1437.59 308.083 1448.92 304.5 1462.42 304.5C1472.59 304.5 1481.84 306.833 1490.17 311.5C1498.51 316 1505.09 322.5 1509.92 331L1482.42 346C1478.42 337.5 1471.76 333.25 1462.42 333.25C1458.26 333.25 1454.76 334.167 1451.92 336C1449.26 337.833 1447.92 340.333 1447.92 343.5Z" fill="#BBC6D0"/>
<path d="M1611.41 304.5C1625.08 304.5 1636.33 309.083 1645.16 318.25C1654.16 327.417 1658.66 340.083 1658.66 356.25V433H1626.41V360.25C1626.41 351.917 1624.16 345.583 1619.66 341.25C1615.16 336.75 1609.16 334.5 1601.66 334.5C1593.33 334.5 1586.66 337.083 1581.66 342.25C1576.66 347.417 1574.16 355.167 1574.16 365.5V433H1541.91V258H1574.16V322C1582 310.333 1594.41 304.5 1611.41 304.5Z" fill="#BBC6D0"/>
<path d="M1728.7 430C1724.53 434.167 1719.53 436.25 1713.7 436.25C1707.87 436.25 1702.87 434.167 1698.7 430C1694.53 425.833 1692.45 420.833 1692.45 415C1692.45 409.167 1694.53 404.167 1698.7 400C1702.87 395.833 1707.87 393.75 1713.7 393.75C1719.53 393.75 1724.53 395.833 1728.7 400C1732.87 404.167 1734.95 409.167 1734.95 415C1734.95 420.833 1732.87 425.833 1728.7 430Z" fill="#BBC6D0"/>
<path d="M1786.59 293C1781.26 293 1776.59 291.083 1772.59 287.25C1768.76 283.25 1766.84 278.583 1766.84 273.25C1766.84 267.917 1768.76 263.25 1772.59 259.25C1776.59 255.25 1781.26 253.25 1786.59 253.25C1792.09 253.25 1796.76 255.25 1800.59 259.25C1804.59 263.25 1806.59 267.917 1806.59 273.25C1806.59 278.583 1804.59 283.25 1800.59 287.25C1796.76 291.083 1792.09 293 1786.59 293ZM1770.59 433V308H1802.84V433H1770.59Z" fill="#BBC6D0"/>
<path d="M1947.61 417.5C1934.78 430.167 1919.11 436.5 1900.61 436.5C1882.11 436.5 1866.44 430.167 1853.61 417.5C1840.94 404.667 1834.61 389 1834.61 370.5C1834.61 352 1840.94 336.417 1853.61 323.75C1866.44 310.917 1882.11 304.5 1900.61 304.5C1919.11 304.5 1934.78 310.917 1947.61 323.75C1960.44 336.417 1966.86 352 1966.86 370.5C1966.86 389 1960.44 404.667 1947.61 417.5ZM1876.36 395.25C1882.86 401.75 1890.94 405 1900.61 405C1910.28 405 1918.36 401.75 1924.86 395.25C1931.36 388.75 1934.61 380.5 1934.61 370.5C1934.61 360.5 1931.36 352.25 1924.86 345.75C1918.36 339.25 1910.28 336 1900.61 336C1890.94 336 1882.86 339.25 1876.36 345.75C1870.03 352.25 1866.86 360.5 1866.86 370.5C1866.86 380.5 1870.03 388.75 1876.36 395.25Z" fill="#BBC6D0"/>
<path d="M387.898 346.528L387.894 346.535C416.981 361.315 428.965 396.719 414.695 426.174L414.553 426.465C400.011 456.083 364.275 468.397 334.575 454.032C334.562 454.026 334.549 454.02 334.536 454.013C379.183 475.695 432.973 457.134 454.739 412.507C476.382 368.131 458.224 314.674 414.198 292.605L414.2 292.6L226.352 200.981C211.972 230.464 223.947 265.961 253.082 280.765L253.079 280.772L387.898 346.528Z" fill="#BBC6D0"/>
<path d="M284.408 362.809L306.769 373.715C306.769 373.715 306.769 373.715 306.769 373.715L284.408 362.809C284.408 362.809 284.408 362.809 284.408 362.809Z" fill="#BBC6D0"/>
<path d="M253.978 281.211L387.898 346.528L387.895 346.535C416.982 361.315 428.965 396.719 414.696 426.174L414.554 426.465C400.011 456.082 364.276 468.397 334.577 454.033C334.818 454.148 335.059 454.26 335.301 454.369C340.356 456.633 345.728 457.382 350.891 456.798C351.36 456.744 351.828 456.68 352.293 456.605C361.603 455.105 370.062 449.251 374.509 440.132C381.773 425.24 375.588 407.28 360.697 400.017L306.769 373.715C306.77 373.715 306.769 373.715 306.769 373.715L280.705 361.002L280.708 360.995C251.573 346.191 239.598 310.694 253.978 281.211Z" fill="#BBC6D0" fill-opacity="0.64"/>
<path d="M352.293 456.605C361.602 455.105 370.061 449.251 374.509 440.132C381.772 425.24 375.588 407.28 360.696 400.017L279.805 360.564C265.279 390.347 277.647 426.267 307.431 440.793C307.731 440.94 308.032 441.083 308.333 441.224L308.329 441.232L334.513 454.002C334.775 454.129 335.037 454.251 335.3 454.368C340.356 456.632 345.728 457.382 350.89 456.797C351.36 456.744 351.827 456.68 352.293 456.605Z" fill="#BBC6D0" fill-opacity="0.32"/>
</svg>
